/* XPM */
static char *f901ef2267d74db6f2a6ef6685f49075tr06BS5sYhUbYX5d[] = {
/* columns rows colors chars-per-pixel */
"64 64 164 2 ",
"   c #020102",
".  c #080707",
"X  c #070708",
"o  c #0B0B0B",
"O  c #0F100F",
"+  c #0F1010",
"@  c #141414",
"#  c #181717",
"$  c #181817",
"%  c #1B1B1B",
"&  c #1F201F",
"*  c #1F1F20",
"=  c #242324",
"-  c #272728",
";  c #2B2B2B",
":  c #302F2F",
">  c #30302F",
",  c #2F2F30",
"<  c #302F30",
"1  c #343334",
"2  c #383837",
"3  c #373738",
"4  c #3C3C3C",
"5  c #403F3F",
"6  c #40403F",
"7  c #3F3F40",
"8  c #444444",
"9  c #474847",
"0  c #484847",
"q  c #474748",
"w  c #484748",
"e  c #474848",
"r  c #4C4C4C",
"t  c #504F4F",
"y  c #4F4F50",
"u  c #504F50",
"i  c #4F5050",
"p  c #535353",
"a  c #575857",
"s  c #585857",
"d  c #575758",
"f  c #585758",
"g  c #575858",
"h  c #5C5B5B",
"j  c #605F5F",
"k  c #60605F",
"l  c #5F5F60",
"z  c gray39",
"x  c #636362",
"c  c #616161",
"v  c #646362",
"b  c #646363",
"n  c #646463",
"m  c #656463",
"M  c #646364",
"N  c #646464",
"B  c #656464",
"V  c #646564",
"C  c #656564",
"Z  c #656465",
"A  c #666564",
"S  c #666565",
"D  c #656665",
"F  c #666665",
"G  c #656566",
"H  c #666566",
"J  c gray40",
"K  c #676666",
"L  c #676766",
"P  c #666667",
"I  c #676667",
"U  c #676767",
"Y  c #646463",
"T  c #686767",
"R  c #686767",
"E  c #686867",
"W  c #696867",
"Q  c #686967",
"!  c #686867",
"~  c #686868",
"^  c #696868",
"/  c #696968",
"(  c #696869",
")  c #686969",
"_  c DimGray",
"`  c #6A6968",
"'  c #6A6969",
"]  c #696A69",
"[  c #6A6A69",
"{  c #696A6A",
"}  c #6A6A6A",
"|  c #6B6A6A",
" . c #6B6B6A",
".. c #6B6B6B",
"X. c #6C6B6B",
"o. c #6C6C6B",
"O. c #6B6B6C",
"+. c #6C6C6C",
"@. c #6D6C6C",
"#. c #6D6D6C",
"$. c #6D6D6D",
"%. c #6E6D6D",
"&. c #6E6D6C",
"*. c #6E6E6D",
"=. c #6F6E6D",
"-. c #6E6D6E",
";. c gray43",
":. c #6F6E6E",
">. c #6F6F6E",
",. c #6F6F6F",
"<. c #6C6C6C",
"1. c #706F6F",
"2. c #706F6F",
"3. c #6F706F",
"4. c #70706F",
"5. c #70716F",
"6. c #70706F",
"7. c #717070",
"8. c #717170",
"9. c #717171",
"0. c #727171",
"q. c #717271",
"w. c #727271",
"e. c #727272",
"r. c #737272",
"t. c #737372",
"y. c #737273",
"u. c gray45",
"i. c #727373",
"p. c #747373",
"a. c #757473",
"s. c #747474",
"d. c #757474",
"f. c #757574",
"g. c #767575",
"h. c #777675",
"j. c #777677",
"k. c #777676",
"l. c #747373",
"z. c #787777",
"x. c #787777",
"c. c #777876",
"v. c #787877",
"b. c #797977",
"n. c #787877",
"m. c #797878",
"M. c #7A7979",
"N. c #7A797A",
"B. c #7B7B7A",
"V. c #7C7B7B",
"C. c #7C7C7B",
"Z. c #7D7D7C",
"A. c #7E7D7D",
"S. c #7F7F7E",
"D. c #7B7B7B",
"F. c #807F7F",
"G. c #80807F",
"H. c #7F7F80",
"J. c #828182",
"K. c #838383",
"L. c #888787",
"P. c #888887",
"I. c #8B8B8B",
"U. c #949393",
/* pixels */
"= - - = ; 4 4 3 8 4 7 8 8 4 p p r s g h c e 3 1 4 4 1 1 3 1 4 4 3 3 3 3 e p B B c ' s p 8 3 8 8 ; ; % @ $ % = ; 3 4 3 1 ; - = % ",
"m.S.z.1.v.m.a.s r p s c O.y.y.s.s.s.s.m.C.v.m.m.m.S.S.m.y.m.S.m.s.s.h 7 e 8 p &.' c s c c h E c c n ' l c s.O.&.B l c ' s.s.y.s.",
"&.' ' &.a.y.y.B 8 p h s.1.p.&.&.c n ' y.y.&.1.y.&.B &.1.y.4.y.&.&.X.' 8 4 e b S.S.S.m.v.s.s.z.s.v.z.m.m.V.K.V.c 8 r p B B c B ' ",
"s c B ' X.&.E h e e p ' b B B c B c B o.&.X.&.y.o.n ' &.&.&.&.X.&.&.X.4 1 e ' &.&.' &.o.c T B ' &.&.B B X.y.y.h p p 4 s T b B k ",
"j c b c B &.' e 4 r s &.' n ' X.b b h B &.X.M ' B B ' ' ' X.' T X.' B 4 $ 1 b ' ' T c ' &.' &.&.y.&.' h b B s r p d 8 p c c T T ",
"' B T ' ' &.' 4 - 8 B s.&.' ' &.' ' ' c ' &.&.X.B h B B ' &.' B B B c ; $ 1 p ' &.y.y.y.&.&.&.&.&.&.T c c B e ; 8 e 7 h E B T &.",
"y.' n c o.y.&.8 8 e c &.4.&.' &.&.' o.&.y.1.&.' b c B B n ' T B E o.c 4 $ - p B ' &.y.y.&.X.&.&.' T ' X.' b 8 ; @ 8 r B 1.' T X.",
"T c h B ' &.&.p c p ' &.y.&.&.p.&.T B X.o.y.y.' B B B B T T ' B ' T c 4 4 3 p o.&.&.&.1.y.1.&.&.' B E &.T c 8 8 8 ; e B B B B E ",
"y.y.&.&.' B B p B c ' y.y.y.&.X.&.' T ' &.y.y.&.o.' B B B B ' &.' ' s e s 8 r ' 1.' ' 1.y.y.y.y.&.1.&.' c s 8 r 8 - 3 B y.&.&.y.",
"s.y.s.s.y.1.' e 8 p b s B ' ' ' y.' B o.s.y.y.y.4.' B j c c ' ' X.4.s s B e 1 p B &.4.1.y.y.y.y.s.s.y.T b 8 3 r e 4 ; B 4.' ' y.",
"s c c ' ' c p 4 h 8 ' 1.&.B s h c ' y.4.&.T s f p e r p r p p c &.' 8 s ' p @ $ ; 8 h &.y.y.y.s.y.&.h 4 @ X ; s s c 8 4 s p p p ",
"o o o @ @ @   4 s = o % ; ; * + @ ; ; ; % o o X     o - 1 3 ; % = $ @ p h h ;       o % 1 4 4 4 ; $ o     X 3 3 8 e p X X X X X ",
"o X X     X @ e c 8 X         X             X o o X                 - 8 4 1 3 ; $ o                       o 4 s p - - @ o o o o ",
"8 3 1 8 3 8 p e r s s r 8 8 r c B i 1 $ ; 4 4 4 p p p 8 - 4 p e i p c p e 7 4 h h s p 4 ; ; - ; ; = % - o @ 3 4 p p 8 p 8 3 8 4 ",
"4 8 e 8 p p s c &.S.L.L.K.K.F.K.K.L.S.&.O.&.B p s ' s p s.z.T L.K.g o.L.K.S.S.m.V.S.K.K.S.K.y.e r 8 1 0 s r j &.m.S.K.L.S.v.y.p ",
"B l 4 3 2 &.I.P.K.S.s.&.y.y.y.a.s.m.G.K.S.m.S.V.p e r n m.&.p B y.p h s.a.y.y.p.s.p.y.s.s.s.m.+.p p h B B +.y.s.s.m.s.' h ' B ' ",
"p.y.r 8 8 y.m.3.y.y.&.X.&.&.1.y.a.y.y.s.p.y.y.v.c 4 e p &.X.k s ' s 8 &.s.p.y.y.y.y.&.o.p 8 l B r h h B ' n c h B B s s +.' 1.m.",
"B p 4 e e &.y.y.y.y.y.y.p.&.y.s.p.&.y.s.s.y.4.y.&.e 8 e &.&.T h b T p 8 p B s.s.y.E h p h c e e e p s &.' h h h s h s k E B ' 1.",
"T 8 ; r s y.y.y.y.s.s.s.y.y.s.s.y.y.y.s.y.y.&.' y.h s e +.1.&.&.' T s.&.T h s h s B ' y.&.' s.h 8 8 w ' T B B b B E X.B B ' &.&.",
"' 8 - ; 8 1.s.a.s.s.s.a.4.&.y.y.s.s.s.s.y.y.4.&.' c B 8 B y.y.y.y.&.c X.p.s.s.y.&.y.&.&.y.y.s.B 7 ; 4 B &.E c h ' o.&.&.&.&.y.y.",
"n 1 3 ; 8 c y.z.y.y.y.y.y.4.y.s.s.m.s.y.p.y.&.&.y.c ' s ' y.s.z.y.y.s.' h h c T c h c B p.y.y.&.r r e h e p p p B &.T &.4.y.y.y.",
"3 $ 1 = - s 8 ' ' y.p.4.s.p.p.s.s.s.c.s.&.y.y.1.y.p p r B y.4.s.s.p.s.m.s.&.4.1.&.&.&.h h B B h r s 8 8 c c T ' B h j B E &.&.c ",
"  = 8 8 ; 8 s h f h c B c c s p s n B k h s f p 8 ; r 8 4 c B c B ' y.y.s.s.p.s.s.y.4.y.&.O.B 1 , h 6 8 h p s c &.&.&.y.&.B p - ",
"o r s p 4 X @ @ @ # $ @ o o X X . o + @ @ o X X   $ 4 7 X o o o o @ ; 4 e r p s c E &.4.B p 1 X = r 3 X @ @ $ - 4 8 8 4 1 = o   ",
"8 8 p r 4 =             X                   o o o 4 8 p e o X o               X o @ & = @     $ s 8 ; o                       = ",
"r 8 4 3 4 8 4 1 1 3 4 4 3 - % ; - q h B &.y.y.X.B z.s.s.S.y.&.&.' h 8 < - @     o X       o ; r p 4 3 3 3 3 - = = $ % = $ ; r p ",
"B c c c &.s.y.c h h r 8 i r 8 3 r K.K.S.V.m.m.a.v.m.v.m.m.s.m.m.D.S.K.P.I.L.y.8 ; 8 ; 3 r h B h &.E h &.s r 3 e p 8 ; 8 e p c s ",
"S.K.K.K.S.F.F.K.K.K.L.S.p e s p s &.B ' &.y.y.y.y.&.&.y.y.4.&.o.&.y.s.p.m.S.L.P.1 1 4 r s h 8 h K.y.B s.a.p.+.' &.' T 1.S.S.K.K.",
"y.s.s.s.s.y.a.s.v.s.s.s.&.3 - $ p &.h B B B c ' ' h s &.&.&.&.M ' &.&.' 1.s.s.s.4 - 8 c s 4 b s.y.h h ' ' &.T c b B &.y.s.s.s.p.",
"y.p.s.a.s.y.y.s.m.v.s.a.c - = 1 s p.&.y.y.1.&.&.&.y.T s &.&.' 1.y.y.y.y.y.y.y.p.B p p p p m.P.s.T p 8 r k c s a T ' X.&.y.&.y.y.",
"y.' e c o.c h h h r p y.r ; e h c &.&.' &.X.o.&.&.&.y.B B y.&.1.p.p.s.s.y.y.p.v.&.p c r B S.s.y.c h c j c c h B &.p.s.y.y.y.y.y.",
"s.&.e ' s.y.y.s.s.4.p p ; e p 8 c T X.X.' c X.&.M ' &.' r B s.y.y.y.y.y.y.y.y.s.r r s p &.y.1.y.c p s.c c E 1.&.y.s.s.y.y.&.B X.",
"&.y.s p s.s.y.y.a.p.s.' ; s 8 3 B &.&.&.' ' X.&.&.&.1.' r h z.s.s.a.y.y.y.1.s.&.= 1 4 s s.p.p.y.p 8 h s B 1.X.' y.s.y.y.s.y.X.&.",
"&.&.p p y.y.s.y.y.y.y.&.8 e 8 4 ' s.s.y.&.' &.o.' c X.y.c s s.y.p.s.z.v.s.s.y.3 - p 4 p ' y.y.y.j e p c c ' X.' ' &.&.y.y.y.&.' ",
"&.s s s.1.y.p.a.y.y.s.p.r 4 e e c s.y.y.p.&.&.y.y.&.&.1.B h 4.s.s.y.y.s.s.' = o s N 1 p &.' X.&.4.B h c c B &.B X.&.&.o.4.y.&.&.",
"B y.m.z.s.p.y.y.&.c h h 4 4 p 8 e y.y.y.p.&.X.y.p.y.4.&.y.s ' p.y.y.y.y.s.b o @ - - ; r 1.&.&.1.&.&.B B ' ' B k k B ' ' ' &.p.y.",
"s h p p p r 4 : $ o o X 3 h B B 4 &.y.s.y.y.y.y.y.y.y.4.+.p h y.p.y.&.4.&.8 - 3 4 4 = $ 4 e e r p p r e r p p p r 8 4 4 8 i h r ",
"o                 X o @ 8 h r e ; 3 s s p u r 8 8 p p h h p 8 r 8 4 1 - @ o 8 e p 4 4 +                 X o o @ o           X o ",
"@ @ $ $ @ $ % 4 p s h i h s s h 8                   X X o X               = r 8 4 4 8 4 @ o o o @ @ @ @ o o o o o $ O o @ % + o ",
"&.L.I.P.L.P.S.s.s.H.s.' s y s ' y.e = % % ; ; ; % o o o o o @ @ @ ; 8 p p s B B s T s &.B p 4 4 r r p r c s 8 3 8 3 @ ; h c h l ",
"P.P.L.P.I.P.I.I.I.I.I.L.&.B ' s c ' P.I.P.P.K.F.m.1.B p 4 ; 8 e ' I.U.U.I.I.L.L.I.L.P.P.I.P.L.C.c 8 s S.V.K.m.r ; $ 1 s h &.P.I.",
"y.&.&.z.m.V.S.K.L.L.K.K.y.&.m.' h ' K.S.v.a.y.s.s.m.V.m.8 ; ; u ' S.K.S.m.s.y.s.s.y.1.s.&.X.' &.S.S.z.y.o.B &.' - - e h p ' a.s.",
"&.&.y.p.s.m.s.m.C.K.K.S.' 8 r p r c s.4.y.y.&.y.1.y.y.1.e e ; p ' p 1.a.a.y.&.&.y.&.&.p.a.y.X.c M &.1.' ' ' &.' 8 ; r s 8 y &.1.",
"y.s.s.s.m.C.m.m.m.V.K.K.&.r ; ; e y s s p y.z.y.4.&.4.y.r p s p y.h B ' &.B 1.s.s.y.&.p.y.&.&.' b s B X.y.y.y.1.k 4 % 1 h b y.y.",
"s.s.s.s.s.m.m.s.v.m.S.K.&.p e e p &.z.m.&.h c &.s.y.4.&.e 4 4 8 &.B c B &.' c 4.s.T ' y.y.&.' ' n k B ' &.s.&.s 4 4 - % 4 B &.y.",
"s.s.p.y.y.p.s.p.z.m.m.K.' p r 8 p p.y.y.y.y.p c c ' ' &.8 p 8 ; c &.h E s.p.1.&.s.s.B s p c c B p c E B B y.p $ 1 p p , 4 o.y.a.",
"a.s.s.y.y.s.s.s.s.s.m.S.' r p 8 4 1.y.y.&.&.&.T ' T ' h s B +.; 8 B c p &.y.s.b c B c ' p B j b B &.s.&.+.&.; p r ; r 8 4 &.y.a.",
"y.p.s.s.p.y.s.v.p.p.s.s.O.r p p e y.s.a.y.&.' B ' o.p.y.B s p ; o 8 h s c B B r e ' s.c s c h B &.y.y.T s 8 = 4 @ % 8 r r ' s.p.",
"z.m.v.+.y.y.&.' T ' y.y.s e c h p &.p.y.y.&.&.p.B ' E X.1.s p e @   @ = - = % : 8 p c p s c p 4 8 p s 1 @ X X     - ; 3 8 h y.p.",
"B c 4 @ 1 4 3 = # % - 1 % 8 r i 8 B s.p.' p 5 4 3 4 p ' ' r p p 4 o               X $ ; - = @       X   X @ = @ = 7 s s 4 > 3 e ",
"o o                     X 4 8 1 @ @ ; : #           o ; 3 3 e e 4 8 3 - = ; 4 ; +             o @ o o - e r 8 8 ; 1 8 4 3       ",
"    1 8 % o $ ; - < 4 1 5 4 ; ; - o     X $ @ % = $       4 h p 4 4 c ' e p N B h q ; ; ; ; 3 p c e 3 r p h n s 8 e s B p ; = o ",
"y.&.K.P.P.L.L.S.S.K.L.I.I.K.B 9 r q r p &.m.y.s.s.' s p p p.m.' +.s.c.m.S.m.s.K.S.1.p r h p r 8 8 h y.s.m.z.m.m.m.c y.S.m.C.K.m.",
"K.K.K.K.K.S.m.s.y.y.y.z.m.K.L.K.h 4 d y.y.&.s.z.p.y.m.K.C.m.s.&.c &.&.4.4.&.y.4.m.S.B p e 4 8 8 c P.K.m.a.p.s.s.s.s p y.y.s.m.m.",
"y.1.&.s.m.s.s.s.y.&.&.' y.S.L.L.B 3 4 s ' ' c ' &.&.y.&.&.' T n B h f h E ' &.&.y.m.s.p e p p h ' s.y.&.' y.y.s.y.1.p c ' &.y.y.",
"y.&.1.y.s.s.s.s.y.4.s.y.&.&.S.K.s.p ; 1 X.' B ' 1.p.y.&.X.X.B ' ' X.&.p j T ' ' B s.F.b e d p c B B ' T ' y.&.y.1.B h c p.p.y.s.",
"a.&.' ' y.y.y.y.y.4.y.y.y.y.y.p.a.h p = p B ' X.&.p.1.&.X.' B X.1.y.s.' h h B ' X.y.m.y.e r e b c B B B &.y.y.y.&.X.n p y.y.s.s.",
"s.y.&.y.s.s.a.s.m.s.s.y.1.&.&.1.s.s p ; ; ' B ' X.y.y.y.&.&.1.&.&.&.1.y.c h p &.1.1.4.T r 8 p h j n ' &.y.s.y.' B &.y.s &.a.s.s.",
"s.p.p.s.s.s.m.s.z.s.y.1.y.&.X.&.&.s 8 3 ; T ' ' &.p.s.p.y.y.y.' &.&.&.' B ' h c ' ' h c 3 4 r c B ' T ' 1.y.y.B B ' &.c s s.s.s.",
"s.s.a.p.s.s.s.m.s.p.y.y.p.&.' X.&.s c c s s.y.X.&.y.y.y.a.y.a.y.&.&.&.4.y.' s c &.p B c 4 7 e h c T &.y.y.y.y.y.1.&.&.' a ' y.s.",
"y.&.y.y.p.s.s.s.s.s.p.1.1.&.B B &.8 c B c s.y.&.y.p.y.&.&.y.y.&.&.&.&.y.y.y.B c c p y.h e B s B h c X.&.4.1.' &.4.&.y.y.y.B p y.",
"+.y.y.y.&.y.v.s.y.s.s.&.' B h h 8 ; p p p ' &.n c h j ' ' B X.X.' ' B &.' B k b B B s > p p ; p b B &.1.' ' ' &.&.B y.s.y.y.p &.",
"; ; - - ; ; 3 4 4 ; - = $ @ @ o   = q r ; % ; - @ o @ % % % % % $ $ * * $ o o o o o   o p B 1 @ ; = % = ; 4 e r e e 8 4 1 1 = ; ",
"                              X o 7 4 1 ;                                 @ $ @ X X $ 8 h c p X                                 "
};
